<svg xmlns:xlink="http://www.w3.org/1999/xlink" width="20.308" xmlns="http://www.w3.org/2000/svg" height="24" id="screenshot-629d13e7-3095-8022-8003-fd3e19dbffbc" viewBox="10023.346 5693.5 20.308 24" style="-webkit-print-color-adjust: exact;" fill="none" version="1.1"><g id="shape-629d13e7-3095-8022-8003-fd3e19dbffbc"><g class="fills" id="fills-629d13e7-3095-8022-8003-fd3e19dbffbc"><path fill="currentColor" fill-rule="evenodd" clip-rule="evenodd" rx="0" ry="0" d="M10026.115,5695.346C10025.606,5695.346,10025.192,5695.759,10025.192,5696.269L10025.192,5714.731C10025.192,5715.240,10025.606,5715.654,10026.115,5715.654L10040.885,5715.654C10041.394,5715.654,10041.808,5715.240,10041.808,5714.731L10041.808,5702.731L10035.346,5702.731C10034.836,5702.731,10034.423,5702.317,10034.423,5701.808L10034.423,5695.346L10026.115,5695.346ZZM10036.269,5696.652L10040.502,5700.885L10036.269,5700.885L10036.269,5696.652ZZM10023.346,5696.269C10023.346,5694.740,10024.586,5693.500,10026.115,5693.500L10035.346,5693.500C10035.591,5693.500,10035.826,5693.597,10035.999,5693.770L10043.384,5701.155C10043.557,5701.328,10043.654,5701.563,10043.654,5701.808L10043.654,5714.731C10043.654,5716.260,10042.414,5717.500,10040.885,5717.500L10026.115,5717.500C10024.586,5717.500,10023.346,5716.260,10023.346,5714.731L10023.346,5696.269ZZ" style="fill: rgb(153, 153, 153); fill-opacity: 1;"/></g></g></svg>